# xmcd CD database file
#
# Track frame offsets:
#	150
#	17985
#	39955
#	59347
#	80098
#	98683
#	121103
#	140185
#	163056
#	185237
#
# Disc length: 2742 seconds
#
# Revision: 0
# Processed by: cddbd v1.5.2PL0 Copyright (c) Steve Scherf et al.
# Submitted via: CDex 1.70beta2
#
DISCID=8a0ab40a
DTITLE=Various Artist - Pure Salsa Moods - CD3
DYEAR=2005
DGENRE=Salsa
TTITLE0=01-Bacilos_Hasta que vuelvas conmigo
TTITLE1=02-Marc Anthony_Sergio Mendes
TTITLE2=03-Gilberto Santa Rosa_Pueden Decir
TTITLE3=04-Celia Cruz_La vida e sun carnaval
TTITLE4=05-Chayanne_Y tu te vas
TTITLE5=06-Eddy Herrera_Tu eres ajena
TTITLE6=07-Lupita D'Alessio_Derroche
TTITLE7=08-Victor Manuelle_Como se lo explico al corazon
TTITLE8=09-Celia Cruz&Johnny Paceco_Quimbara
TTITLE9=10-Gilberto Santa Rosa_Un monton de estrellas
EXTD=YEAR: 2005
EXTT0=
EXTT1=
EXTT2=
EXTT3=
EXTT4=
EXTT5=
EXTT6=
EXTT7=
EXTT8=
EXTT9=
PLAYORDER=
